<?xml version="1.0" encoding="UTF-8" standalone="no"?>
<!DOCTYPE svg PUBLIC "-//W3C//DTD SVG 1.1//EN"
 "http://www.w3.org/Graphics/SVG/1.1/DTD/svg11.dtd">
<!-- Generated by graphviz version 2.36.0 (20140111.2315)
 -->
<!-- Title: controllers_diagram Pages: 1 -->
<svg width="1516pt" height="1321pt"
 viewBox="0.00 0.00 1516.00 1321.50" xmlns="http://www.w3.org/2000/svg" xmlns:xlink="http://www.w3.org/1999/xlink">
<g id="graph0" class="graph" transform="scale(1 1) rotate(0) translate(4 1317.5)">
<title>controllers_diagram</title>
<polygon fill="white" stroke="none" points="-4,4 -4,-1317.5 1512,-1317.5 1512,4 -4,4"/>
<!-- _diagram_info -->
<g id="node1" class="node"><title>_diagram_info</title>
<text text-anchor="start" x="1334" y="-1185.6" font-family="Times,serif" font-size="13.00">Controllers diagram</text>
<text text-anchor="start" x="1334" y="-1171.6" font-family="Times,serif" font-size="13.00">Date: Jun 28 2014 &#45; 20:32</text>
<text text-anchor="start" x="1334" y="-1157.6" font-family="Times,serif" font-size="13.00">Migration version: 104</text>
<text text-anchor="start" x="1334" y="-1143.6" font-family="Times,serif" font-size="13.00">Generated by RailRoady 1.1.1</text>
<text text-anchor="start" x="1334" y="-1129.6" font-family="Times,serif" font-size="13.00">http://railroady.prestonlee.com</text>
</g>
<!-- Admin::ContentController -->
<g id="node2" class="node"><title>Admin::ContentController</title>
<ellipse fill="none" stroke="black" cx="104.641" cy="-64.9279" rx="104.782" ry="18"/>
<text text-anchor="middle" x="104.641" y="-61.2279" font-family="Times,serif" font-size="14.00">Admin::ContentController</text>
</g>
<!-- Admin::BaseController -->
<g id="node3" class="node"><title>Admin::BaseController</title>
<ellipse fill="none" stroke="black" cx="737.64" cy="-462.116" rx="93.6835" ry="18"/>
<text text-anchor="middle" x="737.64" y="-458.416" font-family="Times,serif" font-size="14.00">Admin::BaseController</text>
</g>
<!-- Admin::BaseController&#45;&gt;Admin::ContentController -->
<g id="edge1" class="edge"><title>Admin::BaseController&#45;&gt;Admin::ContentController</title>
<path fill="none" stroke="black" d="M710.034,-444.794C605.809,-379.395 236.863,-147.894 132.392,-82.3411"/>
</g>
<!-- Admin::ProfilesController -->
<g id="node4" class="node"><title>Admin::ProfilesController</title>
<ellipse fill="none" stroke="black" cx="646.883" cy="-18" rx="103.982" ry="18"/>
<text text-anchor="middle" x="646.883" y="-14.3" font-family="Times,serif" font-size="14.00">Admin::ProfilesController</text>
</g>
<!-- Admin::BaseController&#45;&gt;Admin::ProfilesController -->
<g id="edge3" class="edge"><title>Admin::BaseController&#45;&gt;Admin::ProfilesController</title>
<path fill="none" stroke="black" d="M728.183,-444.093C711.162,-410.643 675.758,-336.226 660.921,-268.909 642.092,-183.484 644.146,-77.9598 645.921,-36.2203"/>
</g>
<!-- Admin::FeedbackController -->
<g id="node5" class="node"><title>Admin::FeedbackController</title>
<ellipse fill="none" stroke="black" cx="759.849" cy="-661.89" rx="110.48" ry="18"/>
<text text-anchor="middle" x="759.849" y="-658.19" font-family="Times,serif" font-size="14.00">Admin::FeedbackController</text>
</g>
<!-- Admin::BaseController&#45;&gt;Admin::FeedbackController -->
<g id="edge4" class="edge"><title>Admin::BaseController&#45;&gt;Admin::FeedbackController</title>
<path fill="none" stroke="black" d="M739.65,-480.197C743.868,-518.135 753.6,-605.678 757.827,-643.706"/>
</g>
<!-- Admin::DashboardController -->
<g id="node6" class="node"><title>Admin::DashboardController</title>
<ellipse fill="none" stroke="black" cx="936.229" cy="-554.999" rx="114.28" ry="18"/>
<text text-anchor="middle" x="936.229" y="-551.299" font-family="Times,serif" font-size="14.00">Admin::DashboardController</text>
</g>
<!-- Admin::BaseController&#45;&gt;Admin::DashboardController -->
<g id="edge5" class="edge"><title>Admin::BaseController&#45;&gt;Admin::DashboardController</title>
<path fill="none" stroke="black" d="M773.603,-478.936C809.259,-495.613 863.613,-521.035 899.525,-537.832"/>
</g>
<!-- Admin::SettingsController -->
<g id="node7" class="node"><title>Admin::SettingsController</title>
<ellipse fill="none" stroke="black" cx="507.196" cy="-451.24" rx="104.782" ry="18"/>
<text text-anchor="middle" x="507.196" y="-447.54" font-family="Times,serif" font-size="14.00">Admin::SettingsController</text>
</g>
<!-- Admin::BaseController&#45;&gt;Admin::SettingsController -->
<g id="edge6" class="edge"><title>Admin::BaseController&#45;&gt;Admin::SettingsController</title>
<path fill="none" stroke="black" d="M646.563,-457.817C633.982,-457.223 620.999,-456.611 608.251,-456.009"/>
</g>
<!-- Admin::CategoriesController -->
<g id="node8" class="node"><title>Admin::CategoriesController</title>
<ellipse fill="none" stroke="black" cx="389.245" cy="-28.7003" rx="114.28" ry="18"/>
<text text-anchor="middle" x="389.245" y="-25.0003" font-family="Times,serif" font-size="14.00">Admin::CategoriesController</text>
</g>
<!-- Admin::BaseController&#45;&gt;Admin::CategoriesController -->
<g id="edge7" class="edge"><title>Admin::BaseController&#45;&gt;Admin::CategoriesController</title>
<path fill="none" stroke="black" d="M731.796,-444.064C719.542,-407.892 688.653,-324.92 645.231,-265.594 575.492,-170.312 463.469,-82.737 414.043,-46.4117"/>
</g>
<!-- Admin::ResourcesController -->
<g id="node9" class="node"><title>Admin::ResourcesController</title>
<ellipse fill="none" stroke="black" cx="1215.26" cy="-328.775" rx="112.38" ry="18"/>
<text text-anchor="middle" x="1215.26" y="-325.075" font-family="Times,serif" font-size="14.00">Admin::ResourcesController</text>
</g>
<!-- Admin::BaseController&#45;&gt;Admin::ResourcesController -->
<g id="edge8" class="edge"><title>Admin::BaseController&#45;&gt;Admin::ResourcesController</title>
<path fill="none" stroke="black" d="M791.038,-447.208C882.078,-421.791 1066.47,-370.313 1159.26,-344.409"/>
</g>
<!-- Admin::CacheController -->
<g id="node10" class="node"><title>Admin::CacheController</title>
<ellipse fill="none" stroke="black" cx="544.84" cy="-265.556" rx="98.5829" ry="18"/>
<text text-anchor="middle" x="544.84" y="-261.856" font-family="Times,serif" font-size="14.00">Admin::CacheController</text>
</g>
<!-- Admin::BaseController&#45;&gt;Admin::CacheController -->
<g id="edge9" class="edge"><title>Admin::BaseController&#45;&gt;Admin::CacheController</title>
<path fill="none" stroke="black" d="M720.19,-444.326C683.576,-406.997 599.09,-320.864 562.389,-283.447"/>
</g>
<!-- Admin::UsersController -->
<g id="node11" class="node"><title>Admin::UsersController</title>
<ellipse fill="none" stroke="black" cx="900.421" cy="-35.0924" rx="96.6831" ry="18"/>
<text text-anchor="middle" x="900.421" y="-31.3924" font-family="Times,serif" font-size="14.00">Admin::UsersController</text>
</g>
<!-- Admin::BaseController&#45;&gt;Admin::UsersController -->
<g id="edge10" class="edge"><title>Admin::BaseController&#45;&gt;Admin::UsersController</title>
<path fill="none" stroke="black" d="M749.54,-444.25C771.16,-411.055 817.088,-337.042 843.505,-268.941 873.576,-191.419 891.288,-93.1135 897.685,-53.1799"/>
</g>
<!-- Admin::SeoController -->
<g id="node12" class="node"><title>Admin::SeoController</title>
<ellipse fill="none" stroke="black" cx="752.213" cy="-268.925" rx="89.8845" ry="18"/>
<text text-anchor="middle" x="752.213" y="-265.225" font-family="Times,serif" font-size="14.00">Admin::SeoController</text>
</g>
<!-- Admin::BaseController&#45;&gt;Admin::SeoController -->
<g id="edge11" class="edge"><title>Admin::BaseController&#45;&gt;Admin::SeoController</title>
<path fill="none" stroke="black" d="M739.011,-443.941C741.788,-407.12 748.052,-324.09 750.835,-287.193"/>
</g>
<!-- Admin::TextfiltersController -->
<g id="node13" class="node"><title>Admin::TextfiltersController</title>
<ellipse fill="none" stroke="black" cx="323.628" cy="-316.136" rx="113.18" ry="18"/>
<text text-anchor="middle" x="323.628" y="-312.436" font-family="Times,serif" font-size="14.00">Admin::TextfiltersController</text>
</g>
<!-- Admin::BaseController&#45;&gt;Admin::TextfiltersController -->
<g id="edge12" class="edge"><title>Admin::BaseController&#45;&gt;Admin::TextfiltersController</title>
<path fill="none" stroke="black" d="M692.545,-446.215C613.431,-418.32 450.429,-360.845 370.249,-332.574"/>
</g>
<!-- Admin::SidebarController -->
<g id="node14" class="node"><title>Admin::SidebarController</title>
<ellipse fill="none" stroke="black" cx="1189.42" cy="-549.482" rx="103.182" ry="18"/>
<text text-anchor="middle" x="1189.42" y="-545.782" font-family="Times,serif" font-size="14.00">Admin::SidebarController</text>
</g>
<!-- Admin::BaseController&#45;&gt;Admin::SidebarController -->
<g id="edge13" class="edge"><title>Admin::BaseController&#45;&gt;Admin::SidebarController</title>
<path fill="none" stroke="black" d="M803.817,-474.913C888.374,-491.265 1034.06,-519.437 1120.1,-536.076"/>
</g>
<!-- Admin::TagsController -->
<g id="node15" class="node"><title>Admin::TagsController</title>
<ellipse fill="none" stroke="black" cx="1216.79" cy="-756.77" rx="93.6835" ry="18"/>
<text text-anchor="middle" x="1216.79" y="-753.07" font-family="Times,serif" font-size="14.00">Admin::TagsController</text>
</g>
<!-- Admin::BaseController&#45;&gt;Admin::TagsController -->
<g id="edge14" class="edge"><title>Admin::BaseController&#45;&gt;Admin::TagsController</title>
<path fill="none" stroke="black" d="M750.309,-479.984C765.262,-500.117 791.725,-532.898 820.24,-554.899 935.69,-643.97 1096.47,-711.437 1172.98,-740.737"/>
</g>
<!-- Admin::ThemesController -->
<g id="node16" class="node"><title>Admin::ThemesController</title>
<ellipse fill="none" stroke="black" cx="962.755" cy="-777.178" rx="104.782" ry="18"/>
<text text-anchor="middle" x="962.755" y="-773.478" font-family="Times,serif" font-size="14.00">Admin::ThemesController</text>
</g>
<!-- Admin::BaseController&#45;&gt;Admin::ThemesController -->
<g id="edge15" class="edge"><title>Admin::BaseController&#45;&gt;Admin::ThemesController</title>
<path fill="none" stroke="black" d="M750.388,-479.958C789.918,-535.282 910.149,-703.553 949.867,-759.141"/>
</g>
<!-- Admin::RedirectsController -->
<g id="node17" class="node"><title>Admin::RedirectsController</title>
<ellipse fill="none" stroke="black" cx="959.057" cy="-328.076" rx="109.681" ry="18"/>
<text text-anchor="middle" x="959.057" y="-324.376" font-family="Times,serif" font-size="14.00">Admin::RedirectsController</text>
</g>
<!-- Admin::BaseController&#45;&gt;Admin::RedirectsController -->
<g id="edge16" class="edge"><title>Admin::BaseController&#45;&gt;Admin::RedirectsController</title>
<path fill="none" stroke="black" d="M766.133,-444.867C808.531,-419.2 887.785,-371.222 930.322,-345.471"/>
</g>
<!-- Admin::PagesController -->
<g id="node18" class="node"><title>Admin::PagesController</title>
<ellipse fill="none" stroke="black" cx="1187.79" cy="-41.8372" rx="96.6831" ry="18"/>
<text text-anchor="middle" x="1187.79" y="-38.1372" font-family="Times,serif" font-size="14.00">Admin::PagesController</text>
</g>
<!-- Admin::BaseController&#45;&gt;Admin::PagesController -->
<g id="edge17" class="edge"><title>Admin::BaseController&#45;&gt;Admin::PagesController</title>
<path fill="none" stroke="black" d="M750.891,-443.857C770.629,-417.172 809.525,-366.501 847.62,-327.919 957.409,-216.726 1106.35,-102.441 1163.81,-59.5295"/>
</g>
<!-- Admin::PostTypesController -->
<g id="node19" class="node"><title>Admin::PostTypesController</title>
<ellipse fill="none" stroke="black" cx="593.924" cy="-579.718" rx="113.18" ry="18"/>
<text text-anchor="middle" x="593.924" y="-576.018" font-family="Times,serif" font-size="14.00">Admin::PostTypesController</text>
</g>
<!-- Admin::BaseController&#45;&gt;Admin::PostTypesController -->
<g id="edge18" class="edge"><title>Admin::BaseController&#45;&gt;Admin::PostTypesController</title>
<path fill="none" stroke="black" d="M716.124,-479.722C689.031,-501.892 642.75,-539.765 615.587,-561.992"/>
</g>
<!-- CommentsController -->
<g id="node20" class="node"><title>CommentsController</title>
<ellipse fill="none" stroke="black" cx="98.068" cy="-953.631" rx="85.5853" ry="18"/>
<text text-anchor="middle" x="98.068" y="-949.931" font-family="Times,serif" font-size="14.00">CommentsController</text>
</g>
<!-- XmlController -->
<g id="node21" class="node"><title>XmlController</title>
<ellipse fill="none" stroke="black" cx="91.5433" cy="-678.826" rx="63.0888" ry="18"/>
<text text-anchor="middle" x="91.5433" y="-675.126" font-family="Times,serif" font-size="14.00">XmlController</text>
</g>
<!-- AccountsController -->
<g id="node22" class="node"><title>AccountsController</title>
<ellipse fill="none" stroke="black" cx="336.119" cy="-794.273" rx="79.8859" ry="18"/>
<text text-anchor="middle" x="336.119" y="-790.573" font-family="Times,serif" font-size="14.00">AccountsController</text>
</g>
<!-- ContentController -->
<g id="node23" class="node"><title>ContentController</title>
<ellipse fill="none" stroke="black" cx="545.999" cy="-881.511" rx="74.9875" ry="18"/>
<text text-anchor="middle" x="545.999" y="-877.811" font-family="Times,serif" font-size="14.00">ContentController</text>
</g>
<!-- ThemeController -->
<g id="node24" class="node"><title>ThemeController</title>
<ellipse fill="none" stroke="black" cx="657.818" cy="-1060.17" rx="71.4873" ry="18"/>
<text text-anchor="middle" x="657.818" y="-1056.47" font-family="Times,serif" font-size="14.00">ThemeController</text>
</g>
<!-- ContentController&#45;&gt;ThemeController -->
<g id="edge23" class="edge"><title>ContentController&#45;&gt;ThemeController</title>
<path fill="none" stroke="black" d="M557.337,-899.624C578.824,-933.955 625.236,-1008.11 646.617,-1042.27"/>
</g>
<!-- GroupingController -->
<g id="node26" class="node"><title>GroupingController</title>
<ellipse fill="none" stroke="black" cx="814.859" cy="-1293.33" rx="80.6858" ry="18"/>
<text text-anchor="middle" x="814.859" y="-1289.63" font-family="Times,serif" font-size="14.00">GroupingController</text>
</g>
<!-- ContentController&#45;&gt;GroupingController -->
<g id="edge25" class="edge"><title>ContentController&#45;&gt;GroupingController</title>
<path fill="none" stroke="black" d="M569.8,-898.647C608.637,-927.745 685.817,-990.486 730.912,-1060.21 777.63,-1132.45 802.589,-1234.1 811.272,-1275.11"/>
</g>
<!-- BackendController -->
<g id="node29" class="node"><title>BackendController</title>
<ellipse fill="none" stroke="black" cx="136.428" cy="-1269.8" rx="77.1866" ry="18"/>
<text text-anchor="middle" x="136.428" y="-1266.1" font-family="Times,serif" font-size="14.00">BackendController</text>
</g>
<!-- ContentController&#45;&gt;BackendController -->
<g id="edge27" class="edge"><title>ContentController&#45;&gt;BackendController</title>
<path fill="none" stroke="black" d="M538.222,-899.662C524.559,-930.136 493.962,-992.475 455.003,-1035.56 365.217,-1134.85 227.372,-1218.78 166.778,-1253.15"/>
</g>
<!-- AuthorsController -->
<g id="node32" class="node"><title>AuthorsController</title>
<ellipse fill="none" stroke="black" cx="378.014" cy="-1035.36" rx="75.2868" ry="18"/>
<text text-anchor="middle" x="378.014" y="-1031.66" font-family="Times,serif" font-size="14.00">AuthorsController</text>
</g>
<!-- ContentController&#45;&gt;AuthorsController -->
<g id="edge30" class="edge"><title>ContentController&#45;&gt;AuthorsController</title>
<path fill="none" stroke="black" d="M526.729,-899.16C494.325,-928.837 429.311,-988.382 397.059,-1017.92"/>
</g>
<!-- ArticlesController -->
<g id="node33" class="node"><title>ArticlesController</title>
<ellipse fill="none" stroke="black" cx="918.593" cy="-1021.14" rx="74.9875" ry="18"/>
<text text-anchor="middle" x="918.593" y="-1017.44" font-family="Times,serif" font-size="14.00">ArticlesController</text>
</g>
<!-- ContentController&#45;&gt;ArticlesController -->
<g id="edge31" class="edge"><title>ContentController&#45;&gt;ArticlesController</title>
<path fill="none" stroke="black" d="M586.583,-896.719C658.254,-923.579 806.424,-979.106 878.06,-1005.95"/>
</g>
<!-- TrackbacksController -->
<g id="node25" class="node"><title>TrackbacksController</title>
<ellipse fill="none" stroke="black" cx="1199.72" cy="-990.387" rx="87.1846" ry="18"/>
<text text-anchor="middle" x="1199.72" y="-986.687" font-family="Times,serif" font-size="14.00">TrackbacksController</text>
</g>
<!-- CategoriesController -->
<g id="node31" class="node"><title>CategoriesController</title>
<ellipse fill="none" stroke="black" cx="1163.39" cy="-1278.25" rx="84.485" ry="18"/>
<text text-anchor="middle" x="1163.39" y="-1274.55" font-family="Times,serif" font-size="14.00">CategoriesController</text>
</g>
<!-- GroupingController&#45;&gt;CategoriesController -->
<g id="edge29" class="edge"><title>GroupingController&#45;&gt;CategoriesController</title>
<path fill="none" stroke="black" d="M894.382,-1289.89C950.034,-1287.48 1024.21,-1284.27 1080.57,-1281.83"/>
</g>
<!-- TagsController -->
<g id="node35" class="node"><title>TagsController</title>
<ellipse fill="none" stroke="black" cx="489.144" cy="-1295.5" rx="63.8893" ry="18"/>
<text text-anchor="middle" x="489.144" y="-1291.8" font-family="Times,serif" font-size="14.00">TagsController</text>
</g>
<!-- GroupingController&#45;&gt;TagsController -->
<g id="edge33" class="edge"><title>GroupingController&#45;&gt;TagsController</title>
<path fill="none" stroke="black" d="M733.927,-1293.87C678.064,-1294.24 604.812,-1294.73 553.045,-1295.07"/>
</g>
<!-- ApplicationController -->
<g id="node27" class="node"><title>ApplicationController</title>
<ellipse fill="none" stroke="black" cx="537.426" cy="-710.997" rx="88.2844" ry="18"/>
<text text-anchor="middle" x="537.426" y="-707.297" font-family="Times,serif" font-size="14.00">ApplicationController</text>
</g>
<!-- ApplicationController&#45;&gt;Admin::BaseController -->
<g id="edge2" class="edge"><title>ApplicationController&#45;&gt;Admin::BaseController</title>
<path fill="none" stroke="black" d="M571.298,-694.193C610.462,-672.983 673.969,-632.781 708.612,-579.833 728.896,-548.832 735.01,-504.818 736.85,-480.336"/>
</g>
<!-- ApplicationController&#45;&gt;XmlController -->
<g id="edge20" class="edge"><title>ApplicationController&#45;&gt;XmlController</title>
<path fill="none" stroke="black" d="M454.082,-704.984C366.617,-698.673 231.186,-688.901 152.979,-683.259"/>
</g>
<!-- ApplicationController&#45;&gt;AccountsController -->
<g id="edge21" class="edge"><title>ApplicationController&#45;&gt;AccountsController</title>
<path fill="none" stroke="black" d="M498.134,-727.251C462.434,-742.019 410.081,-763.677 374.628,-778.343"/>
</g>
<!-- ApplicationController&#45;&gt;ContentController -->
<g id="edge22" class="edge"><title>ApplicationController&#45;&gt;ContentController</title>
<path fill="none" stroke="black" d="M538.344,-729.245C539.994,-762.064 543.443,-830.67 545.089,-863.394"/>
</g>
<!-- FeedbackController -->
<g id="node28" class="node"><title>FeedbackController</title>
<ellipse fill="none" stroke="black" cx="751.751" cy="-846.397" rx="80.6858" ry="18"/>
<text text-anchor="middle" x="751.751" y="-842.697" font-family="Times,serif" font-size="14.00">FeedbackController</text>
</g>
<!-- ApplicationController&#45;&gt;FeedbackController -->
<g id="edge26" class="edge"><title>ApplicationController&#45;&gt;FeedbackController</title>
<path fill="none" stroke="black" d="M564.571,-728.145C605.797,-754.19 683.732,-803.426 724.827,-829.388"/>
</g>
<!-- SetupController -->
<g id="node30" class="node"><title>SetupController</title>
<ellipse fill="none" stroke="black" cx="336.01" cy="-568.979" rx="66.8882" ry="18"/>
<text text-anchor="middle" x="336.01" y="-565.279" font-family="Times,serif" font-size="14.00">SetupController</text>
</g>
<!-- ApplicationController&#45;&gt;SetupController -->
<g id="edge28" class="edge"><title>ApplicationController&#45;&gt;SetupController</title>
<path fill="none" stroke="black" d="M512.729,-693.583C473.756,-666.103 398.476,-613.023 359.968,-585.872"/>
</g>
<!-- TextfilterController -->
<g id="node34" class="node"><title>TextfilterController</title>
<ellipse fill="none" stroke="black" cx="87.7011" cy="-403.887" rx="79.8859" ry="18"/>
<text text-anchor="middle" x="87.7011" y="-400.187" font-family="Times,serif" font-size="14.00">TextfilterController</text>
</g>
<!-- ApplicationController&#45;&gt;TextfilterController -->
<g id="edge32" class="edge"><title>ApplicationController&#45;&gt;TextfilterController</title>
<path fill="none" stroke="black" d="M495.585,-694.988C439.822,-672.369 339.784,-627.218 267.469,-568.796 205.203,-518.493 136.893,-452.58 105.401,-421.525"/>
</g>
<!-- FeedbackController&#45;&gt;CommentsController -->
<g id="edge19" class="edge"><title>FeedbackController&#45;&gt;CommentsController</title>
<path fill="none" stroke="black" d="M674.625,-851.68C636.057,-854.459 588.678,-858.08 546.281,-861.911 522.217,-864.085 516.069,-863.754 492.216,-867.6 370,-887.308 228.659,-920.812 152.862,-939.667"/>
</g>
<!-- FeedbackController&#45;&gt;TrackbacksController -->
<g id="edge24" class="edge"><title>FeedbackController&#45;&gt;TrackbacksController</title>
<path fill="none" stroke="black" d="M798.004,-861.264C883.622,-888.784 1065.94,-947.385 1152.37,-975.168"/>
</g>
</g>
</svg>
