<?xml version="1.0" encoding="UTF-8" standalone="no"?>
<!DOCTYPE svg PUBLIC "-//W3C//DTD SVG 1.1//EN"
 "http://www.w3.org/Graphics/SVG/1.1/DTD/svg11.dtd">
<!-- Generated by graphviz version 2.36.0 (20140111.2315)
 -->
<!-- Title: models_diagram Pages: 1 -->
<svg width="2534pt" height="592pt"
 viewBox="0.00 0.00 2534.00 592.00" xmlns="http://www.w3.org/2000/svg" xmlns:xlink="http://www.w3.org/1999/xlink">
<g id="graph0" class="graph" transform="scale(1 1) rotate(0) translate(4 588)">
<title>models_diagram</title>
<polygon fill="white" stroke="none" points="-4,4 -4,-588 2530,-588 2530,4 -4,4"/>
<!-- _diagram_info -->
<g id="node1" class="node"><title>_diagram_info</title>
<text text-anchor="start" x="8" y="-569.6" font-family="Times,serif" font-size="13.00">Models diagram</text>
<text text-anchor="start" x="8" y="-555.6" font-family="Times,serif" font-size="13.00">Date: Jun 28 2014 &#45; 20:32</text>
<text text-anchor="start" x="8" y="-541.6" font-family="Times,serif" font-size="13.00">Migration version: 104</text>
<text text-anchor="start" x="8" y="-527.6" font-family="Times,serif" font-size="13.00">Generated by RailRoady 1.1.1</text>
<text text-anchor="start" x="8" y="-513.6" font-family="Times,serif" font-size="13.00">http://railroady.prestonlee.com</text>
</g>
<!-- WebNotifier -->
<g id="node2" class="node"><title>WebNotifier</title>
<polygon fill="none" stroke="black" points="286,-468 200,-468 200,-432 286,-432 286,-468"/>
<text text-anchor="middle" x="243" y="-446.3" font-family="Times,serif" font-size="14.00">WebNotifier</text>
</g>
<!-- Redirection -->
<g id="node3" class="node"><title>Redirection</title>
<ellipse fill="none" stroke="black" cx="971" cy="-254" rx="51.4931" ry="18"/>
<text text-anchor="middle" x="971" y="-250.3" font-family="Times,serif" font-size="14.00">Redirection</text>
</g>
<!-- PageCache -->
<g id="node4" class="node"><title>PageCache</title>
<polygon fill="none" stroke="black" points="1652.25,-468 1575.75,-468 1575.75,-432 1652.25,-432 1652.25,-468"/>
<text text-anchor="middle" x="1614" y="-446.3" font-family="Times,serif" font-size="14.00">PageCache</text>
</g>
<!-- Feedback -->
<g id="node5" class="node"><title>Feedback</title>
<ellipse fill="none" stroke="black" cx="814" cy="-92" rx="44.2946" ry="18"/>
<text text-anchor="middle" x="814" y="-88.3" font-family="Times,serif" font-size="14.00">Feedback</text>
</g>
<!-- Comment -->
<g id="node26" class="node"><title>Comment</title>
<ellipse fill="none" stroke="black" cx="1048" cy="-18" rx="46.2191" ry="18"/>
<text text-anchor="middle" x="1048" y="-14.3" font-family="Times,serif" font-size="14.00">Comment</text>
</g>
<!-- Feedback&#45;&gt;Comment -->
<g id="edge36" class="edge"><title>Feedback&#45;&gt;Comment</title>
<path fill="none" stroke="black" d="M848.026,-80.5306C892.01,-66.9969 968.228,-43.5452 1012.78,-29.8354"/>
</g>
<!-- Trackback -->
<g id="node31" class="node"><title>Trackback</title>
<ellipse fill="none" stroke="black" cx="814" cy="-18" rx="48.1437" ry="18"/>
<text text-anchor="middle" x="814" y="-14.3" font-family="Times,serif" font-size="14.00">Trackback</text>
</g>
<!-- Feedback&#45;&gt;Trackback -->
<g id="edge51" class="edge"><title>Feedback&#45;&gt;Trackback</title>
<path fill="none" stroke="black" d="M814,-73.937C814,-62.626 814,-47.8282 814,-36.4407"/>
</g>
<!-- Category -->
<g id="node6" class="node"><title>Category</title>
<ellipse fill="none" stroke="black" cx="533" cy="-254" rx="42.3456" ry="18"/>
<text text-anchor="middle" x="533" y="-250.3" font-family="Times,serif" font-size="14.00">Category</text>
</g>
<!-- Category&#45;&gt;Category -->
<g id="edge5" class="edge"><title>Category&#45;&gt;Category</title>
<path fill="none" stroke="#ea83fc" d="M580.593,-260.178C587.973,-259.25 593,-257.19 593,-254 593,-251.142 588.966,-249.191 582.82,-248.149"/>
<ellipse fill="none" stroke="#ea83fc" cx="576.518" cy="-260.457" rx="4" ry="4"/>
<polygon fill="#ea83fc" stroke="#ea83fc" points="582.491,-248.121 572.91,-242.786 577.509,-247.695 572.527,-247.27 572.527,-247.27 572.527,-247.27 577.509,-247.695 572.144,-251.754 582.491,-248.121 582.491,-248.121"/>
<text text-anchor="middle" x="615.5" y="-250.3" font-family="Times,serif" font-size="14.00">children</text>
</g>
<!-- Categorization -->
<g id="node11" class="node"><title>Categorization</title>
<ellipse fill="none" stroke="black" cx="474" cy="-92" rx="62.0922" ry="18"/>
<text text-anchor="middle" x="474" y="-88.3" font-family="Times,serif" font-size="14.00">Categorization</text>
</g>
<!-- Category&#45;&gt;Categorization -->
<g id="edge6" class="edge"><title>Category&#45;&gt;Categorization</title>
<path fill="none" stroke="#a4967c" d="M523.931,-228.407C513.076,-198.968 494.967,-149.859 483.798,-119.571"/>
<ellipse fill="none" stroke="#a4967c" cx="525.414" cy="-232.427" rx="4.00001" ry="4.00001"/>
<polygon fill="#a4967c" stroke="#a4967c" points="483.757,-119.459 484.519,-108.52 482.027,-114.768 480.297,-110.077 480.297,-110.077 480.297,-110.077 482.027,-114.768 476.075,-111.634 483.757,-119.459 483.757,-119.459"/>
</g>
<!-- Article -->
<g id="node27" class="node"><title>Article</title>
<ellipse fill="none" stroke="black" cx="807" cy="-180" rx="35.1455" ry="18"/>
<text text-anchor="middle" x="807" y="-176.3" font-family="Times,serif" font-size="14.00">Article</text>
</g>
<!-- Category&#45;&gt;Article -->
<g id="edge7" class="edge"><title>Category&#45;&gt;Article</title>
<path fill="none" stroke="#01990f" d="M578.269,-241.105C630.725,-227.32 716.376,-204.814 766.646,-191.604"/>
<polygon fill="#01990f" stroke="#01990f" points="577.931,-241.193 567.116,-239.382 573.096,-242.464 568.26,-243.735 568.26,-243.735 568.26,-243.735 573.096,-242.464 569.403,-248.087 577.931,-241.193 577.931,-241.193"/>
<polygon fill="#01990f" stroke="#01990f" points="766.838,-191.554 777.653,-193.364 771.674,-190.283 776.51,-189.012 776.51,-189.012 776.51,-189.012 771.674,-190.283 775.366,-184.66 766.838,-191.554 766.838,-191.554"/>
</g>
<!-- Profile -->
<g id="node7" class="node"><title>Profile</title>
<ellipse fill="none" stroke="black" cx="746" cy="-342" rx="34.1708" ry="18"/>
<text text-anchor="middle" x="746" y="-338.3" font-family="Times,serif" font-size="14.00">Profile</text>
</g>
<!-- ConfigManager -->
<g id="node8" class="node"><title>ConfigManager</title>
<polygon fill="none" stroke="black" stroke-dasharray="1,5" points="1811.25,-563 1708.75,-563 1708.75,-527 1811.25,-527 1811.25,-563"/>
<text text-anchor="middle" x="1760" y="-541.3" font-family="Times,serif" font-size="14.00">ConfigManager</text>
</g>
<!-- Ping -->
<g id="node9" class="node"><title>Ping</title>
<ellipse fill="none" stroke="black" cx="581" cy="-92" rx="27" ry="18"/>
<text text-anchor="middle" x="581" y="-88.3" font-family="Times,serif" font-size="14.00">Ping</text>
</g>
<!-- Resource -->
<g id="node10" class="node"><title>Resource</title>
<ellipse fill="none" stroke="black" cx="670" cy="-92" rx="43.319" ry="18"/>
<text text-anchor="middle" x="670" y="-88.3" font-family="Times,serif" font-size="14.00">Resource</text>
</g>
<!-- Trigger -->
<g id="node12" class="node"><title>Trigger</title>
<ellipse fill="none" stroke="black" cx="1373" cy="-92" rx="37.0701" ry="18"/>
<text text-anchor="middle" x="1373" y="-88.3" font-family="Times,serif" font-size="14.00">Trigger</text>
</g>
<!-- BlogSweeper -->
<g id="node13" class="node"><title>BlogSweeper</title>
<polygon fill="none" stroke="black" points="2013.25,-468 1924.75,-468 1924.75,-432 2013.25,-432 2013.25,-468"/>
<text text-anchor="middle" x="1969" y="-446.3" font-family="Times,serif" font-size="14.00">BlogSweeper</text>
</g>
<!-- Theme -->
<g id="node14" class="node"><title>Theme</title>
<polygon fill="none" stroke="black" points="1725.25,-468 1670.75,-468 1670.75,-432 1725.25,-432 1725.25,-468"/>
<text text-anchor="middle" x="1698" y="-446.3" font-family="Times,serif" font-size="14.00">Theme</text>
</g>
<!-- PostType -->
<g id="node15" class="node"><title>PostType</title>
<ellipse fill="none" stroke="black" cx="895" cy="-450" rx="44.2946" ry="18"/>
<text text-anchor="middle" x="895" y="-446.3" font-family="Times,serif" font-size="14.00">PostType</text>
</g>
<!-- Right -->
<g id="node16" class="node"><title>Right</title>
<ellipse fill="none" stroke="black" cx="726" cy="-450" rx="30.3206" ry="18"/>
<text text-anchor="middle" x="726" y="-446.3" font-family="Times,serif" font-size="14.00">Right</text>
</g>
<!-- Right&#45;&gt;Profile -->
<g id="edge17" class="edge"><title>Right&#45;&gt;Profile</title>
<path fill="none" stroke="#36497c" d="M731.068,-422.137C734.064,-406.263 737.846,-386.215 740.855,-370.27"/>
<polygon fill="#36497c" stroke="#36497c" points="731.068,-422.143 724.791,-431.135 730.14,-427.056 729.213,-431.969 729.213,-431.969 729.213,-431.969 730.14,-427.056 733.635,-432.804 731.068,-422.143 731.068,-422.143"/>
<polygon fill="#36497c" stroke="#36497c" points="740.94,-369.815 747.217,-360.823 741.868,-364.902 742.795,-359.988 742.795,-359.988 742.795,-359.988 741.868,-364.902 738.373,-359.154 740.94,-369.815 740.94,-369.815"/>
</g>
<!-- Blog -->
<g id="node17" class="node"><title>Blog</title>
<ellipse fill="none" stroke="black" cx="1023" cy="-450" rx="27.4223" ry="18"/>
<text text-anchor="middle" x="1023" y="-446.3" font-family="Times,serif" font-size="14.00">Blog</text>
</g>
<!-- User -->
<g id="node18" class="node"><title>User</title>
<ellipse fill="none" stroke="black" cx="1242" cy="-254" rx="26.949" ry="18"/>
<text text-anchor="middle" x="1242" y="-250.3" font-family="Times,serif" font-size="14.00">User</text>
</g>
<!-- Content -->
<g id="node23" class="node"><title>Content</title>
<ellipse fill="none" stroke="black" cx="1129" cy="-342" rx="38.0212" ry="18"/>
<text text-anchor="middle" x="1129" y="-338.3" font-family="Times,serif" font-size="14.00">Content</text>
</g>
<!-- User&#45;&gt;Content -->
<g id="edge21" class="edge"><title>User&#45;&gt;Content</title>
<path fill="none" stroke="#a7495a" d="M1207.85,-265.204C1177.47,-274.433 1137.44,-287.019 1135,-290 1129.68,-296.5 1127.46,-305.124 1126.79,-313.428"/>
<polygon fill="#a7495a" stroke="#a7495a" points="1208.15,-265.115 1219.02,-266.529 1212.93,-263.668 1217.72,-262.222 1217.72,-262.222 1217.72,-262.222 1212.93,-263.668 1216.42,-257.914 1208.15,-265.115 1208.15,-265.115"/>
<polygon fill="#a7495a" stroke="#a7495a" points="1126.78,-313.592 1122.13,-323.523 1126.71,-318.591 1126.63,-323.59 1126.63,-323.59 1126.63,-323.59 1126.71,-318.591 1131.13,-323.658 1126.78,-313.592 1126.78,-313.592"/>
<text text-anchor="middle" x="1177.5" y="-294.3" font-family="Times,serif" font-size="14.00">notify_contents</text>
</g>
<!-- User&#45;&gt;Article -->
<g id="edge22" class="edge"><title>User&#45;&gt;Article</title>
<path fill="none" stroke="#40d9fd" d="M1209.92,-243.404C1200.64,-240.806 1190.46,-238.127 1181,-236 1063.31,-209.525 921.808,-192.714 851.367,-185.338"/>
<ellipse fill="none" stroke="#40d9fd" cx="1213.96" cy="-244.554" rx="4.00001" ry="4.00001"/>
<polygon fill="#40d9fd" stroke="#40d9fd" points="851.041,-185.304 841.556,-179.8 846.067,-184.79 841.093,-184.277 841.093,-184.277 841.093,-184.277 846.067,-184.79 840.631,-188.753 851.041,-185.304 851.041,-185.304"/>
</g>
<!-- Notification -->
<g id="node28" class="node"><title>Notification</title>
<ellipse fill="none" stroke="black" cx="1292" cy="-180" rx="52.9443" ry="18"/>
<text text-anchor="middle" x="1292" y="-176.3" font-family="Times,serif" font-size="14.00">Notification</text>
</g>
<!-- User&#45;&gt;Notification -->
<g id="edge20" class="edge"><title>User&#45;&gt;Notification</title>
<path fill="none" stroke="#1ad5a2" d="M1257.5,-230.676C1262.95,-222.829 1269.11,-213.964 1274.7,-205.918"/>
<ellipse fill="none" stroke="#1ad5a2" cx="1255.13" cy="-234.092" rx="4.00002" ry="4.00002"/>
<polygon fill="#1ad5a2" stroke="#1ad5a2" points="1274.77,-205.808 1284.17,-200.161 1277.62,-201.701 1280.48,-197.595 1280.48,-197.595 1280.48,-197.595 1277.62,-201.701 1276.78,-195.028 1274.77,-205.808 1274.77,-205.808"/>
</g>
<!-- Sidebar -->
<g id="node19" class="node"><title>Sidebar</title>
<ellipse fill="none" stroke="black" cx="1205" cy="-450" rx="37.5442" ry="18"/>
<text text-anchor="middle" x="1205" y="-446.3" font-family="Times,serif" font-size="14.00">Sidebar</text>
</g>
<!-- Tag -->
<g id="node20" class="node"><title>Tag</title>
<ellipse fill="none" stroke="black" cx="827" cy="-396" rx="27" ry="18"/>
<text text-anchor="middle" x="827" y="-392.3" font-family="Times,serif" font-size="14.00">Tag</text>
</g>
<!-- Tag&#45;&gt;Article -->
<g id="edge25" class="edge"><title>Tag&#45;&gt;Article</title>
<path fill="none" stroke="#1d9423" d="M824.45,-367.712C820.612,-326.65 813.394,-249.417 809.554,-208.33"/>
<polygon fill="#1d9423" stroke="#1d9423" points="824.467,-367.893 820.917,-378.268 824.932,-372.871 825.397,-377.849 825.397,-377.849 825.397,-377.849 824.932,-372.871 829.878,-377.43 824.467,-367.893 824.467,-367.893"/>
<polygon fill="#1d9423" stroke="#1d9423" points="809.541,-208.189 813.091,-197.814 809.076,-203.211 808.611,-198.232 808.611,-198.232 808.611,-198.232 809.076,-203.211 804.13,-198.651 809.541,-208.189 809.541,-208.189"/>
</g>
<!-- Article::States -->
<g id="node21" class="node"><title>Article::States</title>
<polygon fill="none" stroke="black" stroke-dasharray="1,5" points="2221,-563 2127,-563 2127,-527 2221,-527 2221,-563"/>
<text text-anchor="middle" x="2174" y="-541.3" font-family="Times,serif" font-size="14.00">Article::States</text>
</g>
<!-- Redirect -->
<g id="node22" class="node"><title>Redirect</title>
<ellipse fill="none" stroke="black" cx="1109" cy="-450" rx="39.9464" ry="18"/>
<text text-anchor="middle" x="1109" y="-446.3" font-family="Times,serif" font-size="14.00">Redirect</text>
</g>
<!-- Redirect&#45;&gt;Redirection -->
<g id="edge27" class="edge"><title>Redirect&#45;&gt;Redirection</title>
<path fill="none" stroke="#20935c" d="M1092.31,-425.53C1066.16,-388.783 1015.79,-317.968 988.918,-280.189"/>
<ellipse fill="none" stroke="#20935c" cx="1094.92" cy="-429.2" rx="4.00002" ry="4.00002"/>
<polygon fill="#20935c" stroke="#20935c" points="988.729,-279.923 986.599,-269.166 985.83,-275.848 982.932,-271.774 982.932,-271.774 982.932,-271.774 985.83,-275.848 979.265,-274.382 988.729,-279.923 988.729,-279.923"/>
</g>
<!-- Redirect&#45;&gt;Content -->
<g id="edge28" class="edge"><title>Redirect&#45;&gt;Content</title>
<path fill="none" stroke="#052359" d="M1114.07,-422.137C1117.06,-406.263 1120.85,-386.215 1123.85,-370.27"/>
<polygon fill="#052359" stroke="#052359" points="1114.07,-422.143 1107.79,-431.135 1113.14,-427.056 1112.21,-431.969 1112.21,-431.969 1112.21,-431.969 1113.14,-427.056 1116.64,-432.804 1114.07,-422.143 1114.07,-422.143"/>
<polygon fill="#052359" stroke="#052359" points="1123.94,-369.815 1130.22,-360.823 1124.87,-364.902 1125.79,-359.988 1125.79,-359.988 1125.79,-359.988 1124.87,-364.902 1121.37,-359.154 1123.94,-369.815 1123.94,-369.815"/>
</g>
<!-- Content&#45;&gt;Redirection -->
<g id="edge32" class="edge"><title>Content&#45;&gt;Redirection</title>
<path fill="none" stroke="#6c3ab5" d="M1090.39,-328.325C1074.37,-322.431 1055.85,-314.776 1040,-306 1025.28,-297.852 1010.12,-286.967 997.772,-277.346"/>
<ellipse fill="none" stroke="#6c3ab5" cx="1094.27" cy="-329.721" rx="4.00001" ry="4.00001"/>
<polygon fill="#6c3ab5" stroke="#6c3ab5" points="997.539,-277.161 992.513,-267.415 993.626,-274.049 989.712,-270.937 989.712,-270.937 989.712,-270.937 993.626,-274.049 986.911,-274.459 997.539,-277.161 997.539,-277.161"/>
</g>
<!-- Content&#45;&gt;Feedback -->
<g id="edge4" class="edge"><title>Content&#45;&gt;Feedback</title>
<path fill="none" stroke="black" d="M1119.36,-324.194C1106.41,-302.431 1081.89,-263.978 1055,-236 1000.3,-179.085 983.457,-165.509 914,-128 902.347,-121.707 872.163,-111.419 847.983,-103.622"/>
</g>
<!-- Content&#45;&gt;Trigger -->
<g id="edge33" class="edge"><title>Content&#45;&gt;Trigger</title>
<path fill="none" stroke="#ea5127" d="M1174.91,-338.148C1224.98,-334.116 1300.81,-325.007 1322,-306 1375.2,-258.288 1377.78,-165.837 1375.38,-120.048"/>
<ellipse fill="none" stroke="#ea5127" cx="1170.79" cy="-338.467" rx="4" ry="4"/>
<polygon fill="#ea5127" stroke="#ea5127" points="1375.38,-119.961 1379.23,-109.693 1375.06,-114.971 1374.74,-109.982 1374.74,-109.982 1374.74,-109.982 1375.06,-114.971 1370.25,-110.271 1375.38,-119.961 1375.38,-119.961"/>
</g>
<!-- Content&#45;&gt;User -->
<g id="edge31" class="edge"><title>Content&#45;&gt;User</title>
<path fill="none" stroke="#064283" d="M1173.95,-331.461C1190.07,-326.184 1207.36,-318.139 1220,-306 1226.87,-299.399 1231.72,-290.295 1235.07,-281.605"/>
<polygon fill="#064283" stroke="#064283" points="1173.69,-331.536 1162.82,-330.089 1168.9,-332.968 1164.11,-334.4 1164.11,-334.4 1164.11,-334.4 1168.9,-332.968 1165.4,-338.712 1173.69,-331.536 1173.69,-331.536"/>
<polygon fill="#064283" stroke="#064283" points="1235.08,-281.602 1242.53,-273.558 1236.67,-276.863 1238.26,-272.124 1238.26,-272.124 1238.26,-272.124 1236.67,-276.863 1234,-270.689 1235.08,-281.602 1235.08,-281.602"/>
<text text-anchor="middle" x="1265.5" y="-294.3" font-family="Times,serif" font-size="14.00">notify_users</text>
</g>
<!-- Content&#45;&gt;Article -->
<g id="edge47" class="edge"><title>Content&#45;&gt;Article</title>
<path fill="none" stroke="black" d="M1100.32,-329.983C1088.26,-324.251 1074.78,-316.269 1065,-306 1041.14,-280.96 1057.9,-257.74 1031,-236 975.874,-191.449 889.896,-182.211 842.08,-180.752"/>
</g>
<!-- Content&#45;&gt;Notification -->
<g id="edge30" class="edge"><title>Content&#45;&gt;Notification</title>
<path fill="none" stroke="#01b265" d="M1174.74,-338.206C1220.74,-334.328 1287.07,-325.454 1303,-306 1325.5,-278.529 1314.89,-235.371 1304.21,-207.635"/>
<ellipse fill="none" stroke="#01b265" cx="1170.67" cy="-338.532" rx="4" ry="4"/>
<polygon fill="#01b265" stroke="#01b265" points="1304.13,-207.425 1304.5,-196.466 1302.23,-202.799 1300.33,-198.172 1300.33,-198.172 1300.33,-198.172 1302.23,-202.799 1296.17,-199.877 1304.13,-207.425 1304.13,-207.425"/>
</g>
<!-- Page -->
<g id="node30" class="node"><title>Page</title>
<ellipse fill="none" stroke="black" cx="1145" cy="-254" rx="27.4223" ry="18"/>
<text text-anchor="middle" x="1145" y="-250.3" font-family="Times,serif" font-size="14.00">Page</text>
</g>
<!-- Content&#45;&gt;Page -->
<g id="edge50" class="edge"><title>Content&#45;&gt;Page</title>
<path fill="none" stroke="black" d="M1119.15,-324.233C1114.53,-314.171 1110.86,-301.195 1115,-290 1117.94,-282.044 1123.59,-274.676 1129.2,-268.773"/>
</g>
<!-- Feedback::States -->
<g id="node24" class="node"><title>Feedback::States</title>
<polygon fill="none" stroke="black" stroke-dasharray="1,5" points="2347,-563 2239,-563 2239,-527 2347,-527 2347,-563"/>
<text text-anchor="middle" x="2293" y="-541.3" font-family="Times,serif" font-size="14.00">Feedback::States</text>
</g>
<!-- TextFilter -->
<g id="node25" class="node"><title>TextFilter</title>
<ellipse fill="none" stroke="black" cx="1473" cy="-450" rx="46.2191" ry="18"/>
<text text-anchor="middle" x="1473" y="-446.3" font-family="Times,serif" font-size="14.00">TextFilter</text>
</g>
<!-- Article&#45;&gt;Feedback -->
<g id="edge40" class="edge"><title>Article&#45;&gt;Feedback</title>
<path fill="none" stroke="#d7d204" d="M786.805,-157.271C780.958,-148.371 777.083,-137.863 781,-128 782.675,-123.782 785.126,-119.777 787.948,-116.086"/>
<ellipse fill="none" stroke="#d7d204" cx="789.191" cy="-160.505" rx="4.00002" ry="4.00002"/>
<polygon fill="#d7d204" stroke="#d7d204" points="787.968,-116.063 797.945,-111.51 791.265,-112.303 794.561,-108.543 794.561,-108.543 794.561,-108.543 791.265,-112.303 791.177,-105.577 787.968,-116.063 787.968,-116.063"/>
</g>
<!-- Article&#45;&gt;Feedback -->
<g id="edge46" class="edge"><title>Article&#45;&gt;Feedback</title>
<path fill="none" stroke="#3fa117" d="M801.124,-154.008C799.951,-145.701 799.486,-136.424 801,-128 801.516,-125.129 802.252,-122.186 803.115,-119.285"/>
<ellipse fill="none" stroke="#3fa117" cx="801.808" cy="-157.982" rx="4.00001" ry="4.00001"/>
<polygon fill="#3fa117" stroke="#3fa117" points="803.144,-119.202 810.657,-111.215 804.773,-114.475 806.403,-109.749 806.403,-109.749 806.403,-109.749 804.773,-114.475 802.149,-108.282 803.144,-119.202 803.144,-119.202"/>
<text text-anchor="middle" x="855.5" y="-132.3" font-family="Times,serif" font-size="14.00">published_feedback</text>
</g>
<!-- Article&#45;&gt;Ping -->
<g id="edge38" class="edge"><title>Article&#45;&gt;Ping</title>
<path fill="none" stroke="#3c7c1e" d="M770.432,-167.049C731.833,-154.126 669.44,-132.36 617,-110 615.188,-109.227 613.333,-108.416 611.468,-107.584"/>
<ellipse fill="none" stroke="#3c7c1e" cx="774.501" cy="-168.404" rx="4.00001" ry="4.00001"/>
<polygon fill="#3c7c1e" stroke="#3c7c1e" points="611.29,-107.503 604.073,-99.2476 606.745,-105.421 602.199,-103.339 602.199,-103.339 602.199,-103.339 606.745,-105.421 600.325,-107.43 611.29,-107.503 611.29,-107.503"/>
</g>
<!-- Article&#45;&gt;Resource -->
<g id="edge41" class="edge"><title>Article&#45;&gt;Resource</title>
<path fill="none" stroke="#513ad2" d="M772.129,-165.259C758.846,-159.435 743.828,-152.114 731,-144 718.078,-135.827 704.918,-125.179 694.145,-115.727"/>
<ellipse fill="none" stroke="#513ad2" cx="776.043" cy="-166.935" rx="4.00002" ry="4.00002"/>
<polygon fill="#513ad2" stroke="#513ad2" points="693.86,-115.472 689.421,-105.444 690.138,-112.133 686.416,-108.794 686.416,-108.794 686.416,-108.794 690.138,-112.133 683.411,-112.144 693.86,-115.472 693.86,-115.472"/>
</g>
<!-- Article&#45;&gt;Categorization -->
<g id="edge42" class="edge"><title>Article&#45;&gt;Categorization</title>
<path fill="none" stroke="#a0f83a" d="M767.635,-170.009C737.981,-163.143 696.355,-153.309 660,-144 614.933,-132.46 563.998,-118.424 526.838,-108"/>
<ellipse fill="none" stroke="#a0f83a" cx="771.77" cy="-170.964" rx="4.00001" ry="4.00001"/>
<polygon fill="#a0f83a" stroke="#a0f83a" points="526.366,-107.868 517.957,-100.829 521.552,-106.514 516.739,-105.161 516.739,-105.161 516.739,-105.161 521.552,-106.514 515.521,-109.493 526.366,-107.868 526.366,-107.868"/>
</g>
<!-- Article&#45;&gt;Trigger -->
<g id="edge37" class="edge"><title>Article&#45;&gt;Trigger</title>
<path fill="none" stroke="#0b8b06" d="M849.218,-174.317C903.608,-168.135 1001.03,-156.555 1084,-144 1171.26,-130.796 1272.75,-112.111 1329.26,-101.407"/>
<ellipse fill="none" stroke="#0b8b06" cx="845.164" cy="-174.776" rx="4.00001" ry="4.00001"/>
<polygon fill="#0b8b06" stroke="#0b8b06" points="1329.45,-101.371 1340.11,-103.926 1334.36,-100.438 1339.27,-99.5049 1339.27,-99.5049 1339.27,-99.5049 1334.36,-100.438 1338.43,-95.084 1329.45,-101.371 1329.45,-101.371"/>
</g>
<!-- Article&#45;&gt;Comment -->
<g id="edge43" class="edge"><title>Article&#45;&gt;Comment</title>
<path fill="none" stroke="#ca48c9" d="M850.403,-177.951C901.553,-175.591 988.508,-168.033 1059,-144 1072.57,-139.375 1073.62,-133.151 1087,-128 1121.82,-114.59 1145.62,-139.075 1169,-110 1179.03,-97.5323 1177.66,-87.4524 1169,-74 1153.62,-50.1071 1125.03,-36.474 1099.51,-28.7588"/>
<ellipse fill="none" stroke="#ca48c9" cx="846.198" cy="-178.129" rx="4" ry="4"/>
<polygon fill="#ca48c9" stroke="#ca48c9" points="1099.18,-28.6671 1090.75,-21.6534 1094.36,-27.3281 1089.54,-25.989 1089.54,-25.989 1089.54,-25.989 1094.36,-27.3281 1088.34,-30.3247 1099.18,-28.6671 1099.18,-28.6671"/>
</g>
<!-- Article&#45;&gt;Comment -->
<g id="edge44" class="edge"><title>Article&#45;&gt;Comment</title>
<path fill="none" stroke="#42db78" d="M850.476,-177.399C899.706,-173.171 978.914,-158.654 1024,-110 1040,-92.7304 1045.59,-66.0692 1047.43,-46.0613"/>
<ellipse fill="none" stroke="#42db78" cx="846.233" cy="-177.726" rx="4" ry="4"/>
<polygon fill="#42db78" stroke="#42db78" points="1047.43,-45.99 1052.58,-36.307 1047.76,-41.0008 1048.09,-36.0115 1048.09,-36.0115 1048.09,-36.0115 1047.76,-41.0008 1043.6,-35.7161 1047.43,-45.99 1047.43,-45.99"/>
<text text-anchor="middle" x="1101.5" y="-88.3" font-family="Times,serif" font-size="14.00">published_comments</text>
</g>
<!-- Article&#45;&gt;Trackback -->
<g id="edge39" class="edge"><title>Article&#45;&gt;Trackback</title>
<path fill="none" stroke="#9e501c" d="M785.837,-157.16C782.314,-152.969 778.875,-148.484 776,-144 758.826,-117.216 749.097,-103.507 761,-74 766.089,-61.3854 775.609,-50.0494 785.192,-40.9927"/>
<ellipse fill="none" stroke="#9e501c" cx="788.735" cy="-160.457" rx="4.00002" ry="4.00002"/>
<polygon fill="#9e501c" stroke="#9e501c" points="785.327,-40.8731 795.794,-37.6036 789.068,-37.5551 792.808,-34.2371 792.808,-34.2371 792.808,-34.2371 789.068,-37.5551 789.822,-30.8707 785.327,-40.8731 785.327,-40.8731"/>
</g>
<!-- Article&#45;&gt;Trackback -->
<g id="edge45" class="edge"><title>Article&#45;&gt;Trackback</title>
<path fill="none" stroke="#33723d" d="M849.962,-175.879C871.714,-171.865 896.347,-163.06 910,-144 924.125,-124.282 872.645,-71.9251 839.652,-41.5927"/>
<ellipse fill="none" stroke="#33723d" cx="845.744" cy="-176.558" rx="4.00001" ry="4.00001"/>
<polygon fill="#33723d" stroke="#33723d" points="839.52,-41.473 835.142,-31.419 835.819,-38.1117 832.117,-34.7504 832.117,-34.7504 832.117,-34.7504 835.819,-38.1117 829.092,-38.0819 839.52,-41.473 839.52,-41.473"/>
<text text-anchor="middle" x="961" y="-88.3" font-family="Times,serif" font-size="14.00">published_trackbacks</text>
</g>
<!-- NotificationMailer -->
<g id="node29" class="node"><title>NotificationMailer</title>
<polygon fill="none" stroke="black" points="2505.25,-468 2386.75,-468 2386.75,-432 2505.25,-432 2505.25,-468"/>
<text text-anchor="middle" x="2446" y="-446.3" font-family="Times,serif" font-size="14.00">NotificationMailer</text>
</g>
<!-- EmailNotifier -->
<g id="node32" class="node"><title>EmailNotifier</title>
<polygon fill="none" stroke="black" points="396,-468 304,-468 304,-432 396,-432 396,-468"/>
<text text-anchor="middle" x="350" y="-446.3" font-family="Times,serif" font-size="14.00">EmailNotifier</text>
</g>
<!-- ActiveRecord::Observer -->
<g id="node33" class="node"><title>ActiveRecord::Observer</title>
<ellipse fill="none" stroke="black" cx="297" cy="-545" rx="96.2631" ry="18"/>
<text text-anchor="middle" x="297" y="-541.3" font-family="Times,serif" font-size="14.00">ActiveRecord::Observer</text>
</g>
<!-- ActiveRecord::Observer&#45;&gt;WebNotifier -->
<g id="edge1" class="edge"><title>ActiveRecord::Observer&#45;&gt;WebNotifier</title>
<path fill="none" stroke="black" d="M287.096,-526.942C277.413,-510.267 262.748,-485.01 253.025,-468.264"/>
</g>
<!-- ActiveRecord::Observer&#45;&gt;EmailNotifier -->
<g id="edge52" class="edge"><title>ActiveRecord::Observer&#45;&gt;EmailNotifier</title>
<path fill="none" stroke="black" d="M306.721,-526.942C316.224,-510.267 330.618,-485.01 340.161,-468.264"/>
</g>
<!-- ActiveRecord::Base -->
<g id="node34" class="node"><title>ActiveRecord::Base</title>
<ellipse fill="none" stroke="black" cx="967" cy="-545" rx="81.3646" ry="18"/>
<text text-anchor="middle" x="967" y="-541.3" font-family="Times,serif" font-size="14.00">ActiveRecord::Base</text>
</g>
<!-- ActiveRecord::Base&#45;&gt;Redirection -->
<g id="edge2" class="edge"><title>ActiveRecord::Base&#45;&gt;Redirection</title>
<path fill="none" stroke="black" d="M967.238,-526.787C967.95,-475.386 970.053,-323.406 970.763,-272.123"/>
</g>
<!-- ActiveRecord::Base&#45;&gt;Category -->
<g id="edge8" class="edge"><title>ActiveRecord::Base&#45;&gt;Category</title>
<path fill="none" stroke="black" d="M891.571,-538.223C811.028,-530.737 689.978,-515.294 653,-488 577.769,-432.472 545.993,-315.951 536.384,-272.141"/>
</g>
<!-- ActiveRecord::Base&#45;&gt;Profile -->
<g id="edge9" class="edge"><title>ActiveRecord::Base&#45;&gt;Profile</title>
<path fill="none" stroke="black" d="M925.07,-529.506C894.249,-517.119 853.025,-496.716 825,-468 792.367,-434.561 766.205,-385.489 753.807,-359.913"/>
</g>
<!-- ActiveRecord::Base&#45;&gt;Ping -->
<g id="edge10" class="edge"><title>ActiveRecord::Base&#45;&gt;Ping</title>
<path fill="none" stroke="black" d="M892.214,-537.861C751.638,-525.311 462,-494.209 462,-451 462,-451 462,-451 462,-216 462,-160.586 525.157,-120.632 559.45,-103.022"/>
</g>
<!-- ActiveRecord::Base&#45;&gt;Resource -->
<g id="edge11" class="edge"><title>ActiveRecord::Base&#45;&gt;Resource</title>
<path fill="none" stroke="black" d="M895.904,-536.29C807.19,-524.652 667,-498.712 667,-451 667,-451 667,-451 667,-179 667,-155.097 668.172,-127.479 669.051,-110.127"/>
</g>
<!-- ActiveRecord::Base&#45;&gt;Categorization -->
<g id="edge12" class="edge"><title>ActiveRecord::Base&#45;&gt;Categorization</title>
<path fill="none" stroke="black" d="M890.926,-538.749C741.485,-527.407 424,-497.806 424,-451 424,-451 424,-451 424,-179 424,-151.885 442.806,-125.683 457.351,-109.472"/>
</g>
<!-- ActiveRecord::Base&#45;&gt;Trigger -->
<g id="edge13" class="edge"><title>ActiveRecord::Base&#45;&gt;Trigger</title>
<path fill="none" stroke="black" d="M1044.32,-539.519C1202.23,-529.33 1547,-501.321 1547,-451 1547,-451 1547,-451 1547,-179 1547,-118.178 1460.5,-100.371 1409.48,-95.1576"/>
</g>
<!-- ActiveRecord::Base&#45;&gt;PostType -->
<g id="edge16" class="edge"><title>ActiveRecord::Base&#45;&gt;PostType</title>
<path fill="none" stroke="black" d="M953.794,-526.942C940.641,-509.952 920.59,-484.054 907.639,-467.326"/>
</g>
<!-- ActiveRecord::Base&#45;&gt;Right -->
<g id="edge18" class="edge"><title>ActiveRecord::Base&#45;&gt;Right</title>
<path fill="none" stroke="black" d="M905.385,-533.172C865.498,-524.557 813.306,-510.198 771,-488 760.073,-482.267 749.341,-473.595 741.1,-466.087"/>
</g>
<!-- ActiveRecord::Base&#45;&gt;Blog -->
<g id="edge19" class="edge"><title>ActiveRecord::Base&#45;&gt;Blog</title>
<path fill="none" stroke="black" d="M977.271,-526.942C987.565,-509.848 1003.29,-483.734 1013.36,-467.017"/>
</g>
<!-- ActiveRecord::Base&#45;&gt;User -->
<g id="edge23" class="edge"><title>ActiveRecord::Base&#45;&gt;User</title>
<path fill="none" stroke="black" d="M1039.34,-536.811C1120.57,-526.971 1244.43,-506.032 1270,-468 1314.89,-401.227 1343.32,-359.626 1303,-290 1295.11,-276.37 1279.68,-267.589 1266.31,-262.232"/>
</g>
<!-- ActiveRecord::Base&#45;&gt;Sidebar -->
<g id="edge24" class="edge"><title>ActiveRecord::Base&#45;&gt;Sidebar</title>
<path fill="none" stroke="black" d="M1005.24,-529.058C1053.2,-510.317 1134.3,-478.626 1176.92,-461.974"/>
</g>
<!-- ActiveRecord::Base&#45;&gt;Tag -->
<g id="edge26" class="edge"><title>ActiveRecord::Base&#45;&gt;Tag</title>
<path fill="none" stroke="black" d="M926.223,-529.33C898.265,-517.166 862.628,-497.118 842,-468 830.785,-452.168 827.634,-429.691 826.905,-414.292"/>
</g>
<!-- ActiveRecord::Base&#45;&gt;Redirect -->
<g id="edge29" class="edge"><title>ActiveRecord::Base&#45;&gt;Redirect</title>
<path fill="none" stroke="black" d="M991.735,-527.801C1018.75,-510.107 1061.6,-482.045 1087.34,-465.188"/>
</g>
<!-- ActiveRecord::Base&#45;&gt;Content -->
<g id="edge34" class="edge"><title>ActiveRecord::Base&#45;&gt;Content</title>
<path fill="none" stroke="black" d="M1035.35,-535.289C1110.74,-524.112 1224.89,-502.01 1251,-468 1285.99,-422.416 1202.33,-375.824 1156.5,-354.694"/>
</g>
<!-- ActiveRecord::Base&#45;&gt;TextFilter -->
<g id="edge35" class="edge"><title>ActiveRecord::Base&#45;&gt;TextFilter</title>
<path fill="none" stroke="black" d="M1048.31,-544.064C1139.56,-541.815 1290.82,-531.048 1413,-488 1427.31,-482.957 1441.84,-474.119 1453.01,-466.345"/>
</g>
<!-- ActiveRecord::Base&#45;&gt;Notification -->
<g id="edge48" class="edge"><title>ActiveRecord::Base&#45;&gt;Notification</title>
<path fill="none" stroke="black" d="M1038.65,-536.477C1124.38,-525.988 1260.79,-504.085 1296,-468 1353.14,-409.435 1353.35,-371.165 1343,-290 1338.68,-256.087 1339.07,-245.624 1322,-216 1318.24,-209.481 1313.2,-203.031 1308.32,-197.478"/>
</g>
<!-- Object -->
<g id="node35" class="node"><title>Object</title>
<ellipse fill="none" stroke="black" cx="1656" cy="-545" rx="34.1708" ry="18"/>
<text text-anchor="middle" x="1656" y="-541.3" font-family="Times,serif" font-size="14.00">Object</text>
</g>
<!-- Object&#45;&gt;PageCache -->
<g id="edge3" class="edge"><title>Object&#45;&gt;PageCache</title>
<path fill="none" stroke="black" d="M1648.49,-527.373C1640.94,-510.655 1629.36,-485.001 1621.73,-468.112"/>
</g>
<!-- Object&#45;&gt;Theme -->
<g id="edge15" class="edge"><title>Object&#45;&gt;Theme</title>
<path fill="none" stroke="black" d="M1663.51,-527.373C1671.06,-510.655 1682.64,-485.001 1690.27,-468.112"/>
</g>
<!-- ActionController::Caching::Sweeper -->
<g id="node36" class="node"><title>ActionController::Caching::Sweeper</title>
<ellipse fill="none" stroke="black" cx="1969" cy="-545" rx="139.606" ry="18"/>
<text text-anchor="middle" x="1969" y="-541.3" font-family="Times,serif" font-size="14.00">ActionController::Caching::Sweeper</text>
</g>
<!-- ActionController::Caching::Sweeper&#45;&gt;BlogSweeper -->
<g id="edge14" class="edge"><title>ActionController::Caching::Sweeper&#45;&gt;BlogSweeper</title>
<path fill="none" stroke="black" d="M1969,-526.942C1969,-510.267 1969,-485.01 1969,-468.264"/>
</g>
<!-- ActionMailer::Base -->
<g id="node37" class="node"><title>ActionMailer::Base</title>
<ellipse fill="none" stroke="black" cx="2446" cy="-545" rx="80.389" ry="18"/>
<text text-anchor="middle" x="2446" y="-541.3" font-family="Times,serif" font-size="14.00">ActionMailer::Base</text>
</g>
<!-- ActionMailer::Base&#45;&gt;NotificationMailer -->
<g id="edge49" class="edge"><title>ActionMailer::Base&#45;&gt;NotificationMailer</title>
<path fill="none" stroke="black" d="M2446,-526.942C2446,-510.267 2446,-485.01 2446,-468.264"/>
</g>
</g>
</svg>
